<svg height="60" viewBox="0 0 60 60" width="60"
  xmlns="http://www.w3.org/2000/svg"
  xmlns:xlink="http://www.w3.org/1999/xlink">
  <defs>
    <circle id="a" cx="26" cy="26" r="26"/>
    <mask id="b" fill="#fff">
      <use fill="#fff" fill-rule="evenodd" xlink:href="#a"/>
    </mask>
  </defs>
  <g fill="none" fill-rule="evenodd">
    <g transform="translate(1 1)">
      <use fill="#fff" stroke="#979797" xlink:href="#a"/>
      <g mask="url(#b)" stroke="#a1a4a7" stroke-linecap="round" stroke-linejoin="round" stroke-width="2">
        <g transform="translate(12 14)">
          <path d="m42.6332836 47.958768-.0081554-.0091992v-47.9495688h-42.6251282v47.7759343c0 4.5420944 3.30296393 8.2240657 7.37603691 8.2240657h42.62396309c-4.0171498 0-7.2793364-3.58423-7.3667164-8.041232z"/>
          <path d="m49.4994076 56c4.141853 0 7.5005924-3.706754 7.5005924-8.2794205v-26.7205795h-15v26.9046438"/>
          <path d="m6 23h18v-16h-18z"/>
          <path d="m29 7h7"/>
          <path d="m29 15h7"/>
          <path d="m29 23h7"/>
          <path d="m6 31h30"/>
          <path d="m6 39h30"/>
        </g>
      </g>
    </g>
    <path d="m58.98075 57.5675-12.023-12.024c4.679-5.029 7.25-11.538 7.25-18.446 0-7.242-2.82-14.05-7.94-19.16999998-10.571-10.571-27.771-10.569-38.341 0-10.569 10.57099998-10.569 27.76999998 0 38.34099998 5.285 5.285 12.228 7.928 19.17 7.928 6.632 0 13.259-2.417 18.446-7.238l12.024 12.023c.195.195.451.293.707.293s.512-.098.707-.293c.391-.391.391-1.023 0-1.414m-14.127-12.713c-9.79 9.788-25.721 9.792-35.513 0-9.789-9.791-9.789-25.723 0-35.51299998 4.896-4.894 11.326-7.342 17.757-7.342 6.43 0 12.86 2.448 17.756 7.342 4.742 4.74199998 7.354 11.04799998 7.354 17.75599998 0 6.709-2.612 13.015-7.354 17.757" fill="#2db56e"/>
  </g>
</svg>
